<?xml version="1.0" encoding="iso-8859-1"?>
<!-- Generator: Adobe Illustrator 16.0.0, SVG Export Plug-In . SVG Version: 6.00 Build 0)  -->
<!DOCTYPE svg PUBLIC "-//W3C//DTD SVG 1.1//EN" "http://www.w3.org/Graphics/SVG/1.1/DTD/svg11.dtd">
<svg version="1.1" id="Capa_1" xmlns="http://www.w3.org/2000/svg" xmlns:xlink="http://www.w3.org/1999/xlink" x="0px" y="0px"
	 width="26.334px" height="26.334px" viewBox="0 0 26.334 26.334" style="enable-background:new 0 0 26.334 26.334;"
	 xml:space="preserve">
<g>
	<path d="M23.06,11.557C22.523,3.199,18.63,0,13.167,0C7.705,0,3.812,3.198,3.275,11.557C2.979,16.188,3,23.584,1.222,26.334h23.891
		C23.585,24.417,23.354,16.188,23.06,11.557z M20.388,13.835c-0.189,0.801-1.141,1.354-1.553,1.271
		c-0.807,2.61-3.603,5.627-5.668,5.627c-2.125,0-4.847-2.947-5.657-5.629c-0.414,0.097-1.373-0.461-1.562-1.27
		c-0.194-0.824-0.011-1.594,0.411-1.72c0.126-0.037,0.255-0.008,0.384,0.063v-0.841l0.825-0.061c3.088,0,5.76-1.31,7.227-3.24
		c1.062,1.4,2.764,2.45,4.802,2.93v1.214c0.128-0.073,0.258-0.103,0.384-0.065C20.396,12.241,20.583,13.011,20.388,13.835z"/>
</g>
<g>
</g>
<g>
</g>
<g>
</g>
<g>
</g>
<g>
</g>
<g>
</g>
<g>
</g>
<g>
</g>
<g>
</g>
<g>
</g>
<g>
</g>
<g>
</g>
<g>
</g>
<g>
</g>
<g>
</g>
</svg>
