<svg xmlns="http://www.w3.org/2000/svg" xmlns:xlink="http://www.w3.org/1999/xlink" id="Capa_1" width="30.5" height="30.5" x="0" style="enable-background:new 0 0 30.5 30.5" y="0" version="1.1" viewBox="0 0 30.5 30.5" xml:space="preserve"><g><path d="M29.146,27.933l-0.865-4.869c-0.229-1.295-1.421-2.522-2.711-2.797l-6.451-1.361c1.214-1.176,2.147-2.807,2.768-4.445 c0.798-0.291,1.603-1.002,1.833-1.931c0.31-1.229-0.017-2.328-0.78-2.807V8.855c0.697-2.1,1.062-5.533-2.104-7.381 c-1.417-0.828-2.593-0.881-3.48-0.592c-0.137-0.359,0.274-0.881,0.274-0.881c-0.729-0.025-1.112,0.363-1.271,0.582 c-0.974-0.447-2.248-0.639-3.878-0.297c-5.232,1.098-5.9,7.951-4.943,9.453c-0.747,0.48-1.063,1.567-0.759,2.787 c0.233,0.932,1.042,1.646,1.843,1.934c0.609,1.642,1.536,3.272,2.748,4.448l-6.441,1.356c-1.289,0.271-2.479,1.502-2.708,2.797 l-0.868,4.871c-0.12,0.677,0.041,1.314,0.452,1.808c0.41,0.489,1.014,0.76,1.698,0.76h23.493c0.687,0,1.29-0.27,1.701-0.76 C29.106,29.25,29.269,28.607,29.146,27.933z M27.931,29.099c-0.219,0.26-0.55,0.401-0.936,0.401h-4.566v-1.164h5.729 C28.162,28.623,28.103,28.894,27.931,29.099z M3.502,29.5c-0.384,0-0.715-0.143-0.933-0.401c-0.172-0.205-0.233-0.476-0.229-0.763 h5.729V29.5H3.502z M9.069,29.5v-2.854c0-0.277-0.224-0.5-0.5-0.5s-0.5,0.223-0.5,0.5v0.688H2.473l0.729-4.099 c0.159-0.894,1.043-1.808,1.93-1.994l4.561-0.961c1.481,1.468,3.494,2.312,5.59,2.312c2.116,0,4.085-0.816,5.583-2.299l4.498,0.948 c0.889,0.188,1.773,1.103,1.932,1.994l0.729,4.099h-5.597v-0.688c0-0.277-0.225-0.5-0.5-0.5c-0.276,0-0.5,0.223-0.5,0.5V29.5H9.069 z M15.249,20.633c1.062,0,2.021-0.348,2.873-0.916l1.536,0.324c-1.233,1.004-2.753,1.553-4.374,1.553 c-1.604,0-3.151-0.565-4.382-1.565l1.466-0.31C13.221,20.287,14.182,20.633,15.249,20.633z M9.454,13.48 c-0.425,0.092-1.406-0.443-1.601-1.219c-0.199-0.793-0.01-1.533,0.421-1.654c0.127-0.035,0.26-0.008,0.393,0.062V9.485 c0.002-0.004,0.005-0.006,0.007-0.011C8.671,9.458,8.669,9.436,8.667,9.417V9.013c0.106-1.004,1.055-2.909,6.28-1.196 c1.799,0.59,2.909-0.345,3.47-1.584c1.774,0.196,2.958,2.213,3.413,3.455v0.981c0.064-0.035,0.132-0.062,0.197-0.072 c-0.002,0.009-0.001,0.025-0.004,0.031c0.015,0.019,0.041,0.006,0.077-0.029c0.041,0,0.082-0.006,0.122,0.007 c0.431,0.121,0.619,0.86,0.421,1.653c-0.192,0.771-1.167,1.302-1.59,1.222c-0.565,1.721-1.693,3.922-3.301,5.135 c-0.192,0.146-0.396,0.271-0.603,0.387c-0.292,0.162-0.598,0.293-0.917,0.381c-0.315,0.087-0.646,0.14-0.986,0.14 c-0.347,0-0.68-0.051-1-0.14c-0.32-0.088-0.628-0.217-0.921-0.377c-0.208-0.114-0.41-0.241-0.603-0.387 C11.127,17.42,10.021,15.244,9.454,13.48z"/></g></svg>